<svg xmlns="http://www.w3.org/2000/svg" xmlns:xlink="http://www.w3.org/1999/xlink" width="500" zoomAndPan="magnify" viewBox="0 0 375 374.999991" height="500" preserveAspectRatio="xMidYMid meet" version="1.0"><defs><clipPath id="0d9236c5c4"><path d="M 105.757812 58.558594 L 269.257812 58.558594 L 269.257812 222.058594 L 105.757812 222.058594 Z M 105.757812 58.558594 " clip-rule="nonzero"/></clipPath><clipPath id="ab7d6cd96e"><path d="M 103.671875 58.558594 L 271.671875 58.558594 L 271.671875 226.558594 L 103.671875 226.558594 Z M 103.671875 58.558594 " clip-rule="nonzero"/></clipPath></defs><g clip-path="url(#0d9236c5c4)"><path fill="#000000" d="M 187.5 58.558594 C 142.351562 58.558594 105.757812 95.15625 105.757812 140.300781 C 105.757812 172.769531 124.691406 200.820312 152.117188 214.007812 L 156.019531 137.46875 L 165.710938 219.109375 C 172.648438 221.023438 179.953125 222.046875 187.5 222.046875 C 195.042969 222.046875 202.347656 221.023438 209.285156 219.109375 L 218.976562 137.46875 L 222.882812 214.007812 C 250.308594 200.820312 269.238281 172.769531 269.238281 140.300781 C 269.238281 95.15625 232.644531 58.558594 187.5 58.558594 Z M 244.5625 162.863281 C 233.691406 163.246094 228.039062 141.40625 225.242188 129.878906 C 225.242188 129.875 225.242188 129.867188 225.238281 129.859375 C 225.199219 129.695312 225.160156 129.535156 225.121094 129.375 C 225.121094 129.355469 225.113281 129.335938 225.109375 129.320312 C 224.34375 126.65625 221.886719 124.710938 218.976562 124.710938 C 216.003906 124.710938 213.5 126.742188 212.796875 129.5 C 212.796875 129.503906 212.792969 129.515625 212.792969 129.519531 C 209.035156 142.382812 200.6875 170.4375 187.5 170.4375 C 174.308594 170.4375 165.960938 142.382812 162.207031 129.519531 C 162.207031 129.515625 162.199219 129.503906 162.199219 129.5 C 161.496094 126.746094 158.992188 124.710938 156.019531 124.710938 C 153.109375 124.710938 150.652344 126.660156 149.886719 129.320312 C 149.882812 129.335938 149.875 129.355469 149.875 129.375 C 149.835938 129.535156 149.796875 129.695312 149.757812 129.859375 C 149.753906 129.867188 149.753906 129.875 149.753906 129.878906 C 146.957031 141.40625 141.304688 163.246094 130.433594 162.863281 C 118.484375 162.441406 110.902344 143.964844 116.554688 121.324219 C 124.414062 89.84375 153.511719 66.882812 187.5 66.882812 C 221.484375 66.882812 250.582031 89.84375 258.441406 121.324219 C 264.09375 143.964844 256.511719 162.441406 244.5625 162.863281 Z M 244.5625 162.863281 " fill-opacity="1" fill-rule="nonzero"/></g><path fill="#000000" d="M 196.234375 131.765625 C 196.808594 132.339844 197.320312 132.964844 197.769531 133.640625 C 198.222656 134.3125 198.601562 135.027344 198.914062 135.777344 C 199.222656 136.523438 199.457031 137.296875 199.617188 138.09375 C 199.773438 138.890625 199.851562 139.691406 199.851562 140.503906 C 199.851562 141.316406 199.773438 142.117188 199.617188 142.914062 C 199.457031 143.710938 199.222656 144.484375 198.914062 145.230469 C 198.601562 145.980469 198.222656 146.695312 197.769531 147.367188 C 197.320312 148.042969 196.808594 148.667969 196.234375 149.242188 C 195.660156 149.816406 195.035156 150.328125 194.363281 150.777344 C 193.6875 151.226562 192.976562 151.609375 192.226562 151.917969 C 191.476562 152.230469 190.703125 152.464844 189.90625 152.621094 C 189.113281 152.78125 188.308594 152.859375 187.496094 152.859375 C 186.6875 152.859375 185.882812 152.78125 185.085938 152.621094 C 184.292969 152.464844 183.519531 152.230469 182.769531 151.917969 C 182.019531 151.609375 181.308594 151.226562 180.632812 150.777344 C 179.957031 150.328125 179.335938 149.816406 178.761719 149.242188 C 178.1875 148.667969 177.675781 148.042969 177.222656 147.367188 C 176.773438 146.695312 176.394531 145.980469 176.082031 145.234375 C 175.773438 144.484375 175.539062 143.710938 175.378906 142.914062 C 175.222656 142.121094 175.140625 141.316406 175.140625 140.503906 C 175.140625 139.691406 175.222656 138.890625 175.378906 138.09375 C 175.539062 137.296875 175.773438 136.527344 176.082031 135.777344 C 176.394531 135.027344 176.773438 134.316406 177.222656 133.640625 C 177.675781 132.964844 178.1875 132.339844 178.761719 131.769531 C 179.335938 131.195312 179.957031 130.683594 180.632812 130.230469 C 181.308594 129.78125 182.019531 129.398438 182.769531 129.089844 C 183.519531 128.777344 184.292969 128.542969 185.085938 128.386719 C 185.882812 128.226562 186.6875 128.148438 187.496094 128.148438 C 188.308594 128.148438 189.113281 128.226562 189.90625 128.386719 C 190.703125 128.542969 191.476562 128.777344 192.226562 129.089844 C 192.976562 129.398438 193.6875 129.78125 194.363281 130.230469 C 195.035156 130.679688 195.660156 131.195312 196.234375 131.765625 Z M 196.234375 131.765625 " fill-opacity="1" fill-rule="nonzero"/><path fill="#000000" d="M 132.511719 131.230469 C 133.21875 131.347656 133.90625 131.527344 134.574219 131.777344 C 135.246094 132.027344 135.882812 132.339844 136.492188 132.71875 C 137.101562 133.09375 137.664062 133.523438 138.1875 134.011719 C 138.710938 134.5 139.183594 135.03125 139.601562 135.613281 C 140.015625 136.191406 140.375 136.804688 140.671875 137.457031 C 140.96875 138.105469 141.199219 138.78125 141.363281 139.476562 C 141.527344 140.171875 141.621094 140.875 141.648438 141.589844 C 141.671875 142.304688 141.628906 143.015625 141.511719 143.71875 C 141.398438 144.425781 141.214844 145.113281 140.964844 145.78125 C 140.71875 146.453125 140.402344 147.089844 140.027344 147.699219 C 139.652344 148.308594 139.222656 148.871094 138.734375 149.394531 C 138.246094 149.917969 137.714844 150.390625 137.132812 150.808594 C 136.554688 151.226562 135.9375 151.582031 135.289062 151.878906 C 134.636719 152.175781 133.964844 152.40625 133.269531 152.570312 C 132.574219 152.734375 131.871094 152.828125 131.15625 152.855469 C 130.441406 152.878906 129.730469 152.835938 129.023438 152.71875 C 128.320312 152.605469 127.632812 152.425781 126.960938 152.175781 C 126.292969 151.925781 125.65625 151.609375 125.046875 151.234375 C 124.4375 150.859375 123.875 150.429688 123.351562 149.941406 C 122.828125 149.453125 122.355469 148.921875 121.9375 148.339844 C 121.519531 147.761719 121.164062 147.144531 120.867188 146.496094 C 120.570312 145.84375 120.339844 145.171875 120.175781 144.476562 C 120.011719 143.78125 119.917969 143.078125 119.890625 142.363281 C 119.867188 141.648438 119.910156 140.9375 120.023438 140.230469 C 120.140625 139.527344 120.320312 138.839844 120.570312 138.167969 C 120.820312 137.5 121.132812 136.859375 121.511719 136.253906 C 121.886719 135.644531 122.316406 135.078125 122.804688 134.558594 C 123.292969 134.035156 123.824219 133.5625 124.40625 133.144531 C 124.984375 132.726562 125.601562 132.371094 126.25 132.074219 C 126.898438 131.777344 127.574219 131.546875 128.269531 131.382812 C 128.964844 131.21875 129.667969 131.125 130.382812 131.097656 C 131.097656 131.074219 131.808594 131.117188 132.511719 131.230469 Z M 132.511719 131.230469 " fill-opacity="1" fill-rule="nonzero"/><path fill="#000000" d="M 254.976562 140.230469 C 255.089844 140.9375 255.136719 141.644531 255.109375 142.359375 C 255.085938 143.074219 254.988281 143.78125 254.824219 144.476562 C 254.660156 145.171875 254.429688 145.84375 254.132812 146.492188 C 253.835938 147.144531 253.480469 147.757812 253.0625 148.339844 C 252.644531 148.917969 252.171875 149.453125 251.652344 149.9375 C 251.128906 150.425781 250.5625 150.859375 249.953125 151.234375 C 249.347656 151.609375 248.707031 151.921875 248.039062 152.171875 C 247.367188 152.421875 246.679688 152.605469 245.976562 152.71875 C 245.269531 152.832031 244.558594 152.878906 243.84375 152.851562 C 243.132812 152.828125 242.425781 152.730469 241.730469 152.566406 C 241.035156 152.402344 240.363281 152.171875 239.710938 151.875 C 239.0625 151.578125 238.445312 151.222656 237.867188 150.804688 C 237.289062 150.386719 236.753906 149.914062 236.265625 149.390625 C 235.78125 148.867188 235.347656 148.304688 234.972656 147.695312 C 234.597656 147.085938 234.285156 146.449219 234.035156 145.777344 C 233.785156 145.109375 233.601562 144.421875 233.488281 143.714844 C 233.375 143.011719 233.328125 142.300781 233.355469 141.585938 C 233.378906 140.871094 233.476562 140.167969 233.640625 139.472656 C 233.804688 138.777344 234.035156 138.101562 234.332031 137.453125 C 234.628906 136.804688 234.984375 136.1875 235.402344 135.609375 C 235.820312 135.027344 236.292969 134.496094 236.8125 134.007812 C 237.335938 133.519531 237.902344 133.089844 238.511719 132.714844 C 239.117188 132.335938 239.757812 132.023438 240.425781 131.773438 C 241.097656 131.523438 241.785156 131.34375 242.488281 131.230469 C 243.195312 131.113281 243.90625 131.070312 244.621094 131.09375 C 245.332031 131.121094 246.039062 131.214844 246.734375 131.378906 C 247.429688 131.542969 248.101562 131.773438 248.753906 132.070312 C 249.402344 132.367188 250.019531 132.726562 250.597656 133.144531 C 251.175781 133.5625 251.710938 134.03125 252.199219 134.554688 C 252.683594 135.078125 253.117188 135.644531 253.492188 136.25 C 253.867188 136.859375 254.179688 137.5 254.429688 138.167969 C 254.679688 138.835938 254.863281 139.523438 254.976562 140.230469 Z M 254.976562 140.230469 " fill-opacity="1" fill-rule="nonzero"/><g clip-path="url(#ab7d6cd96e)"><path fill="#000000" d="M 187.476562 58.578125 C 141.183594 58.578125 103.671875 96.089844 103.671875 142.382812 C 103.671875 188.675781 141.183594 226.191406 187.476562 226.191406 C 233.769531 226.191406 271.320312 188.675781 271.320312 142.382812 C 271.320312 96.089844 233.769531 58.578125 187.476562 58.578125 Z M 187.476562 220.695312 C 144.21875 220.695312 109.164062 185.640625 109.164062 142.382812 C 109.164062 99.125 144.21875 64.070312 187.476562 64.070312 C 230.734375 64.070312 265.789062 99.125 265.789062 142.382812 C 265.789062 185.640625 230.734375 220.695312 187.476562 220.695312 Z M 187.476562 220.695312 " fill-opacity="1" fill-rule="nonzero"/></g></svg>