<?xml version="1.0" encoding="UTF-8"?>
<svg version="1.1" xmlns="http://www.w3.org/2000/svg" width="500" height="500">
<path d="M0 0 C12.39776306 9.44258399 20.86114721 21.92009256 23.40625 37.484375 C25.281985 52.57551569 19.81732332 65.00715073 11 77 C8.6977109 79.6741652 6.29556442 82.25051216 3.82006836 84.76489258 C-2.34751569 91.13075581 -3.41636473 96.62855839 -3.52734375 105.16601562 C-3.67058522 109.60228828 -4.27005044 112.46043304 -7 116 C-9.32058272 117.16029136 -10.70978774 117.14450313 -13.29443359 117.17700195 C-14.1823056 117.18983719 -15.07017761 117.20267242 -15.98495483 117.21589661 C-16.94640411 117.22328354 -17.90785339 117.23067047 -18.8984375 117.23828125 C-19.88494293 117.246353 -20.87144836 117.25442474 -21.8878479 117.26274109 C-23.97762288 117.27658538 -26.06742051 117.28730598 -28.15722656 117.29516602 C-31.35525216 117.31239362 -34.55224805 117.3562786 -37.75 117.40039062 C-39.77863822 117.41051609 -41.80728524 117.41903265 -43.8359375 117.42578125 C-45.27203873 117.45204338 -45.27203873 117.45204338 -46.7371521 117.47883606 C-53.34397286 117.45721985 -53.34397286 117.45721985 -56.60375977 115.18530273 C-58.61680092 112.03462406 -58.50617896 109.45967895 -58.5625 105.75 C-59.02205784 95.12050338 -61.27497543 90.48602117 -68.59155273 82.84301758 C-78.78785112 72.04901094 -86.04023242 59.56422711 -86.4375 44.4375 C-85.96278661 29.39980474 -80.27062127 16.41343361 -69.84375 5.546875 C-49.9380745 -12.28073548 -22.48173695 -13.80720827 0 0 Z M-66.09765625 15.4453125 C-73.97961544 26.19486321 -78.21123982 36.5338632 -77 50 C-74.4462358 61.94057316 -66.49006689 71.90007671 -57.79296875 80.09375 C-50.0843191 88.28943851 -49.85389833 96.89932171 -49 108 C-37.45 108 -25.9 108 -14 108 C-13.34 103.05 -12.68 98.1 -12 93 C-9.87525452 86.07148212 -6.2980594 81.93356331 -1.36181641 76.80541992 C2.24002331 73.00588163 5.23954556 69.0319488 8.0625 64.625 C8.43205811 64.05434814 8.80161621 63.48369629 9.18237305 62.89575195 C14.8662767 53.77562774 15.36302654 44.19470969 13.3828125 33.7421875 C9.99392558 22.25596017 2.56820769 12.34413028 -7.82421875 6.37890625 C-27.40238236 -3.86462477 -50.94421672 -2.21959094 -66.09765625 15.4453125 Z " fill="#EABE3F" transform="translate(143,178)"/>
<path d="M0 0 C2.64 0 5.28 0 8 0 C9.65 5.28 11.3 10.56 13 16 C15.71970716 10.74815169 18.01095551 5.56932457 20 0 C21.32 0 22.64 0 24 0 C25.0067004 2.26807204 26.00551766 4.53907754 27 6.8125 C27.28617187 7.45509766 27.57234375 8.09769531 27.8671875 8.75976562 C29.13711041 11.67756469 30 13.78265714 30 17 C30.66 17 31.32 17 32 17 C32.18175781 16.03900391 32.18175781 16.03900391 32.3671875 15.05859375 C33.35679227 9.95071067 34.48510951 4.97749731 36 0 C38.64 0 41.28 0 44 0 C42.61004389 6.60732761 40.89557281 13.03978897 38.9375 19.5 C38.5343457 20.85738281 38.5343457 20.85738281 38.12304688 22.2421875 C37.86458984 23.10070312 37.60613281 23.95921875 37.33984375 24.84375 C37.10644287 25.61912109 36.87304199 26.39449219 36.63256836 27.19335938 C36 29 36 29 35 30 C32.69 30 30.38 30 28 30 C26.02 25.71 24.04 21.42 22 17 C21.195625 18.959375 20.39125 20.91875 19.5625 22.9375 C17.125 28.875 17.125 28.875 16 30 C13.66702567 30.04092937 11.33294775 30.04241723 9 30 C7.71454512 26.05018918 6.43289614 22.09916619 5.15478516 18.14697266 C4.71931109 16.80223134 4.28279245 15.45782783 3.84521484 14.11376953 C3.21698473 12.18349334 2.59250246 10.25203954 1.96875 8.3203125 C1.59169922 7.15773926 1.21464844 5.99516602 0.82617188 4.79736328 C0 2 0 2 0 0 Z " fill="#EABE3F" transform="translate(322,238)"/>
<path d="M0 0 C1.32 0 2.64 0 4 0 C4.18932613 8.29123673 4.35150088 16.58293687 4.5 24.875 C4.51187725 25.53755798 4.5237545 26.20011597 4.53599167 26.88275146 C5.11275458 59.5866178 5.0840503 92.29203245 5.0625 125 C5.06164398 126.30840599 5.06078796 127.61681198 5.05990601 128.96486664 C5.04842607 145.30992449 5.02822214 161.6549628 5 178 C4.01 178 3.02 178 2 178 C1.06385978 175.19157934 0.86543009 173.45076212 0.84178162 170.5430603 C0.8319928 169.62844025 0.82220398 168.71382019 0.81211853 167.77148438 C0.80636307 166.76843262 0.8006076 165.76538086 0.79467773 164.73193359 C0.78477814 163.67213287 0.77487854 162.61233215 0.76467896 161.52041626 C0.73287769 157.9797797 0.70815302 154.43913117 0.68359375 150.8984375 C0.66296027 148.39368396 0.64196246 145.8889334 0.62062073 143.38418579 C0.57650603 138.08605761 0.53555026 132.78791891 0.49731445 127.48974609 C0.44962472 120.88509072 0.39554683 114.28050391 0.33934593 107.67591476 C0.03580553 71.78301915 -0.06058417 35.8939718 0 0 Z " fill="#EABE3F" transform="translate(227,139)"/>
<path d="M0 0 C3.76778512 2.08414886 5.77401087 4.50535462 7.75 8.375 C7.75 9.365 7.75 10.355 7.75 11.375 C2.4375 11.72916667 2.4375 11.72916667 -0.25 11.375 C-1.58333333 10.04166667 -2.91666667 8.70833333 -4.25 7.375 C-7.19669529 6.74829998 -9.16802389 6.98363795 -12.25 7.375 C-15.13174413 9.6263626 -15.22404512 11.19656019 -15.75 14.8125 C-15.5053399 18.48180562 -15.5053399 18.48180562 -13.1875 21.375 C-10.32504597 23.74667163 -10.32504597 23.74667163 -6.5 23.25 C-3.41905703 22.71037851 -3.41905703 22.71037851 -2.25 21.375 C-4.56 21.045 -6.87 20.715 -9.25 20.375 C-9.25 18.065 -9.25 15.755 -9.25 13.375 C-3.64 13.375 1.97 13.375 7.75 13.375 C9.17070666 16.21641332 8.34505261 18.31272525 7.54296875 21.2734375 C5.95936629 25.47037408 3.38568379 28.3468559 -0.4375 30.75 C-6.18712823 32.02769516 -11.28436839 32.3578158 -16.625 29.6875 C-20.67940507 26.1157622 -23.90049736 22.90363241 -24.453125 17.32421875 C-24.55878583 12.22608367 -24.21124966 8.71816617 -21.25 4.375 C-15.10888743 -1.81644956 -8.04612796 -3.62451746 0 0 Z " fill="#EABE3F" transform="translate(332.25,194.625)"/>
<path d="M0 0 C4.1796989 2.8497947 7.11864324 5.98092971 8.75 10.875 C9.11826224 16.49099916 8.96556007 20.05165989 5.75 24.875 C1.74314815 28.92564258 -1.82098726 31.00600492 -7.5625 31.125 C-12.51183812 31.04478382 -16.07709449 30.03023961 -19.69140625 26.4453125 C-23.52306416 22.05691797 -24.56739128 18.74206414 -24.4609375 12.9296875 C-23.97508058 8.19708116 -21.73257414 5.09459191 -18.25 2.0625 C-12.63336126 -2.03296575 -6.4763665 -2.24181917 0 0 Z M-15.25 9.875 C-16.79586876 12.96673752 -16.54359521 15.46929552 -16.25 18.875 C-14.06160682 22.20135764 -12.62659512 22.78085122 -8.75 23.75 C-5.34030968 23.87177465 -3.94133953 23.86858484 -1.25 21.875 C0.86890686 18.69663971 1.29028453 16.67955483 1.19921875 12.8828125 C0.65577273 10.45384505 -0.09913377 9.52905702 -1.9375 7.875 C-7.77491941 4.35052035 -10.3834208 5.27878631 -15.25 9.875 Z " fill="#EABE3F" transform="translate(312.25,238.125)"/>
<path d="M0 0 C2.660625 -0.0825 5.32125 -0.165 8.0625 -0.25 C8.8862915 -0.28641602 9.71008301 -0.32283203 10.55883789 -0.36035156 C16.19538043 -0.44404588 19.36323045 0.78446249 24 4 C27.47283265 8.0516381 28.13905104 12.78558615 28 18 C27.118461 22.47066207 25.75258356 25.28412784 22.4375 28.4375 C19.24100201 30.48653717 17.61634546 31.12405877 13.8671875 31.09765625 C13.14128418 31.09515869 12.41538086 31.09266113 11.66748047 31.09008789 C10.74596191 31.08098389 9.82444336 31.07187988 8.875 31.0625 C5.94625 31.041875 3.0175 31.02125 0 31 C0 20.77 0 10.54 0 0 Z M7 7 C7 12.61 7 18.22 7 24 C14.36004593 24.71955482 14.36004593 24.71955482 17.4375 22.4375 C19.49240979 19.23184073 19.86470518 16.78825503 20 13 C19.21395017 10.35601422 18.51393337 9.38069139 16.3125 7.75 C13.29542026 6.64007785 13.29542026 6.64007785 7 7 Z " fill="#EABE3F" transform="translate(264,194)"/>
<path d="M0 0 C2.7225 -0.04125 5.445 -0.0825 8.25 -0.125 C9.10110352 -0.14320801 9.95220703 -0.16141602 10.82910156 -0.18017578 C18.05651252 -0.23324299 18.05651252 -0.23324299 21 2 C23.410068 6.0971156 24.17720406 8.09921267 23.25 12.8125 C22 16 22 16 21 18 C20.34 18 19.68 18 19 18 C20.98 21.96 22.96 25.92 25 30 C19.12861503 30.70106089 19.12861503 30.70106089 16 30 C13.65111994 27.65111994 12.22835245 25.07396744 11 22 C11 21.34 11 20.68 11 20 C10.01 20 9.02 20 8 20 C8 23.3 8 26.6 8 30 C5.36 30 2.72 30 0 30 C0 20.1 0 10.2 0 0 Z M8 7 C8 8.98 8 10.96 8 13 C10.31 13 12.62 13 15 13 C15.38218767 11.34385343 15.71395102 9.67542976 16 8 C14.81575674 6.58422523 14.81575674 6.58422523 11.4375 6.9375 C9.7359375 6.9684375 9.7359375 6.9684375 8 7 Z " fill="#EABE3F" transform="translate(393,238)"/>
<path d="M0 0 C2.64 0 5.28 0 8 0 C9.71117059 4.25327531 11.42010968 8.50743753 13.12695312 12.76245117 C13.70836551 14.21094192 14.29039555 15.6591849 14.87304688 17.10717773 C15.70864345 19.18408996 16.54204147 21.26187236 17.375 23.33984375 C17.63748535 23.99089584 17.8999707 24.64194794 18.17041016 25.31272888 C20 29.88612829 20 29.88612829 20 31 C17.03 31 14.06 31 11 31 C10.505 28.525 10.505 28.525 10 26 C6.04 26 2.08 26 -2 26 C-2.99 28.475 -2.99 28.475 -4 31 C-6.64 31 -9.28 31 -12 31 C-8.40322625 20.46476909 -4.54358241 10.16666843 0 0 Z M3 11 C2.34 13.64 1.68 16.28 1 19 C2.98 19 4.96 19 7 19 C6.40138258 16.64828869 5.73075648 14.3140622 5 12 C4.34 11.67 3.68 11.34 3 11 Z " fill="#EABE3F" transform="translate(393,194)"/>
<path d="M0 0 C8.72955744 0.11307717 15.89728807 3.1211832 22.23828125 9.140625 C27.88298731 15.86108875 30.60692142 23.3844846 31.4453125 32.03515625 C31.0625 34.3125 31.0625 34.3125 29.3671875 36.24609375 C27.0625 37.3125 27.0625 37.3125 24.41015625 36.859375 C22.0625 35.3125 22.0625 35.3125 21.05859375 32.703125 C20.87425781 31.66671875 20.68992188 30.6303125 20.5 29.5625 C19.44201572 24.49147192 18.17394763 21.3895693 15.0625 17.3125 C15.0625 16.6525 15.0625 15.9925 15.0625 15.3125 C9.07483762 12.19891556 3.49992072 10.02074739 -3.1171875 8.7421875 C-4.9375 8.3125 -4.9375 8.3125 -5.9375 7.3125 C-6.0625 4.3125 -6.0625 4.3125 -5.9375 1.3125 C-4.26551674 -0.35948326 -2.29582392 0.06117904 0 0 Z " fill="#EABE3F" transform="translate(118.9375,185.6875)"/>
<path d="M0 0 C2.701875 -0.0825 5.40375 -0.165 8.1875 -0.25 C9.02949951 -0.28641602 9.87149902 -0.32283203 10.73901367 -0.36035156 C14.67603679 -0.41837972 16.56872297 -0.27286024 19.98828125 1.890625 C23.33805351 5.40300757 23.33072332 8.04916343 23.29296875 12.73828125 C22.86344199 16.0542278 21.39075646 17.74987627 19 20 C15.57067929 21.71466036 11.78283935 21.05404056 8 21 C8 23.97 8 26.94 8 30 C5.36 30 2.72 30 0 30 C0 20.1 0 10.2 0 0 Z M8 7 C8 9.31 8 11.62 8 14 C10.91652174 14.16681109 10.91652174 14.16681109 14 14 C14.66 13.34 15.32 12.68 16 12 C15.59471099 9.21762345 15.59471099 9.21762345 14 7 C12.00041636 6.95919217 9.99954746 6.95745644 8 7 Z " fill="#EABE3F" transform="translate(263,238)"/>
<path d="M0 0 C1.29000916 0.00213753 1.29000916 0.00213753 2.6060791 0.00431824 C3.5804895 0.00124161 4.5548999 -0.00183502 5.55883789 -0.00500488 C7.14166565 0.00577339 7.14166565 0.00577339 8.75646973 0.01676941 C10.37651917 0.01745674 10.37651917 0.01745674 12.02929688 0.01815796 C14.31580705 0.02118283 16.60231513 0.02907607 18.88879395 0.04142761 C22.39814516 0.05966243 25.90723238 0.06193749 29.41662598 0.06169128 C31.63407619 0.06660716 33.8515246 0.07243578 36.06896973 0.07926941 C37.12418823 0.08038223 38.17940674 0.08149506 39.26660156 0.0826416 C40.24101196 0.08902145 41.21542236 0.09540131 42.21936035 0.10197449 C43.07936646 0.10578629 43.93937256 0.10959808 44.82543945 0.11352539 C46.91271973 0.24723816 46.91271973 0.24723816 48.91271973 1.24723816 C49.66271973 3.05973816 49.66271973 3.05973816 49.91271973 5.24723816 C49.28896662 6.60117844 48.62616579 7.93833903 47.91271973 9.24723816 C40.8286035 9.29782342 33.74453361 9.33292309 26.66027832 9.35710144 C24.24880228 9.3671777 21.83733851 9.38083897 19.42590332 9.39811707 C15.96574887 9.42229406 12.50575553 9.43370485 9.04553223 9.44255066 C7.96216583 9.45287323 6.87879944 9.4631958 5.76260376 9.47383118 C4.76171722 9.47398224 3.76083069 9.4741333 2.72961426 9.47428894 C1.40390915 9.48095078 1.40390915 9.48095078 0.05142212 9.48774719 C-2.08728027 9.24723816 -2.08728027 9.24723816 -4.08728027 7.24723816 C-4.33728027 4.74723816 -4.33728027 4.74723816 -4.08728027 2.24723816 C-2.08728027 0.24723816 -2.08728027 0.24723816 0 0 Z " fill="#EABE3F" transform="translate(89.0872802734375,296.7527618408203)"/>
<path d="M0 0 C6.27 0 12.54 0 19 0 C19 2.31 19 4.62 19 7 C15.37 7 11.74 7 8 7 C8 8.65 8 10.3 8 12 C11.3 12 14.6 12 18 12 C18 13.98 18 15.96 18 18 C14.7 18 11.4 18 8 18 C8 19.98 8 21.96 8 24 C11.96 24 15.92 24 20 24 C20 25.98 20 27.96 20 30 C13.4 30 6.8 30 0 30 C0 20.1 0 10.2 0 0 Z " fill="#EABE3F" transform="translate(369,238)"/>
<path d="M0 0 C0.81130875 -0.0033284 1.62261749 -0.0066568 2.45851135 -0.01008606 C4.17586703 -0.01515255 5.89323256 -0.01749447 7.6105957 -0.01733398 C10.23991089 -0.01951962 12.86880601 -0.03767561 15.49804688 -0.05664062 C17.16536315 -0.05957475 18.83268141 -0.06155942 20.5 -0.0625 C21.6813578 -0.07327827 21.6813578 -0.07327827 22.88658142 -0.08427429 C26.72945315 -0.06816842 28.54241202 -0.01469407 31.81640625 2.16796875 C32.12890625 4.66796875 32.12890625 4.66796875 31.81640625 7.16796875 C29.81640625 9.16796875 29.81640625 9.16796875 26.00927734 9.39501953 C24.36943205 9.39470221 22.72956608 9.38336556 21.08984375 9.36328125 C20.22702789 9.36045135 19.36421204 9.35762146 18.47525024 9.35470581 C15.71382905 9.34349208 12.95272975 9.31838559 10.19140625 9.29296875 C8.32161926 9.28294048 6.4518272 9.27381437 4.58203125 9.265625 C-0.00663484 9.24354887 -4.59505968 9.20901109 -9.18359375 9.16796875 C-11.30859375 4.54296875 -11.30859375 4.54296875 -10.18359375 1.16796875 C-6.98520457 -0.43122584 -3.51306017 0.00495116 0 0 Z " fill="#EABE3F" transform="translate(101.18359375,307.83203125)"/>
<path d="M0 0 C8.25 0 16.5 0 25 0 C25 2.31 25 4.62 25 7 C22.03 7 19.06 7 16 7 C16 14.92 16 22.84 16 31 C13.36 31 10.72 31 8 31 C8 23.08 8 15.16 8 7 C5.36 7 2.72 7 0 7 C0 4.69 0 2.38 0 0 Z " fill="#EABE3F" transform="translate(356,194)"/>
<path d="M0 0 C2.31 0 4.62 0 7 0 C7 7.92 7 15.84 7 24 C10.96 24 14.92 24 19 24 C19 26.31 19 28.62 19 31 C12.73 31 6.46 31 0 31 C0 20.77 0 10.54 0 0 Z " fill="#EABE3F" transform="translate(416,194)"/>
<path d="M0 0 C2.64 0 5.28 0 8 0 C8 10.23 8 20.46 8 31 C5.36 31 2.72 31 0 31 C0 20.77 0 10.54 0 0 Z " fill="#EABE3F" transform="translate(296,194)"/>
<path d="M0 0 C3.79600305 1.38235949 6.19568775 3.89583665 8.953125 6.734375 C9.49453125 7.2603125 10.0359375 7.78625 10.59375 8.328125 C13.58630871 11.3506093 15.67341775 13.61740856 15.703125 17.984375 C13.703125 20.984375 13.703125 20.984375 11.0078125 21.5546875 C6.25872341 20.73510475 4.08980802 18.25388674 0.828125 14.859375 C-0.06132812 14.00472656 -0.06132812 14.00472656 -0.96875 13.1328125 C-3.78802639 10.27455994 -5.17047811 8.71678438 -5.8671875 4.6796875 C-5.10864852 1.0948115 -3.70325365 -0.0251922 0 0 Z " fill="#EABE3F" transform="translate(166.296875,267.015625)"/>
<path d="M0 0 C0.33 0.33 0.66 0.66 1 1 C0.78515823 6.85801887 -0.99173571 9.93960475 -5.125 13.875 C-5.58648437 14.3596875 -6.04796875 14.844375 -6.5234375 15.34375 C-10.10932845 18.87053285 -13.00524128 19.91615513 -18 20 C-18.66 19.34 -19.32 18.68 -20 18 C-19.99423487 13.97017105 -19.0256719 11.70337483 -16.34765625 8.82421875 C-15.26525811 7.76555163 -14.16974251 6.72015474 -13.0625 5.6875 C-12.23588867 4.8821582 -12.23588867 4.8821582 -11.39257812 4.06054688 C-5.66966036 -1.45375907 -5.66966036 -1.45375907 0 0 Z " fill="#EABE3F" transform="translate(62,268)"/>
<path d="M0 0 C4.14539167 1.41070511 6.58704127 4.11953153 9.61328125 7.203125 C10.21076172 7.77675781 10.80824219 8.35039062 11.42382812 8.94140625 C15.66189099 13.19399962 15.66189099 13.19399962 16.3125 16.75 C15.80078125 18.953125 15.80078125 18.953125 13.80078125 20.953125 C11.63671875 21.4921875 11.63671875 21.4921875 8.80078125 20.953125 C6.06126814 19.01926025 3.77285493 16.71359662 1.42578125 14.328125 C0.77222656 13.71066406 0.11867188 13.09320313 -0.5546875 12.45703125 C-5.18922602 7.82249273 -5.18922602 7.82249273 -5.23828125 3.5546875 C-3.97021647 0.37975838 -3.38474286 -0.07214372 0 0 Z " fill="#EABE3F" transform="translate(47.19921875,149.046875)"/>
<path d="M0 0 C0.83789062 0.30164063 1.67578125 0.60328125 2.5390625 0.9140625 C3.2265625 3.171875 3.2265625 3.171875 3.5390625 5.9140625 C2.3515625 7.90625 2.3515625 7.90625 0.5390625 9.7890625 C-0.10804688 10.46710938 -0.75515625 11.14515625 -1.421875 11.84375 C-2.09476563 12.52695313 -2.76765625 13.21015625 -3.4609375 13.9140625 C-4.07195312 14.59726563 -4.68296875 15.28046875 -5.3125 15.984375 C-9.70386905 20.76264881 -9.70386905 20.76264881 -13.2734375 21.4765625 C-15.4609375 20.9140625 -15.4609375 20.9140625 -17.4609375 18.9140625 C-18 16.75 -18 16.75 -17.4609375 13.9140625 C-15.52707275 11.17454939 -13.22140912 8.88613618 -10.8359375 6.5390625 C-10.21847656 5.88550781 -9.60101563 5.23195312 -8.96484375 4.55859375 C-4.29949064 -0.10675936 -4.29949064 -0.10675936 0 0 Z " fill="#EABE3F" transform="translate(178.4609375,149.0859375)"/>
<path d="M0 0 C0.97582031 -0.01224609 1.95164062 -0.02449219 2.95703125 -0.03710938 C4.35501953 -0.04000977 4.35501953 -0.04000977 5.78125 -0.04296875 C6.63783203 -0.04707764 7.49441406 -0.05118652 8.37695312 -0.05541992 C10.5 0.1875 10.5 0.1875 12.5 2.1875 C12.75 4.6875 12.75 4.6875 12.5 7.1875 C9.96945663 9.71804337 9.06451118 9.44433229 5.5625 9.453125 C4.58539063 9.45570313 3.60828125 9.45828125 2.6015625 9.4609375 C1.57804687 9.45320312 0.55453125 9.44546875 -0.5 9.4375 C-1.52351563 9.44523438 -2.54703125 9.45296875 -3.6015625 9.4609375 C-4.57867187 9.45835937 -5.55578125 9.45578125 -6.5625 9.453125 C-7.46097656 9.45086914 -8.35945313 9.44861328 -9.28515625 9.44628906 C-11.5 9.1875 -11.5 9.1875 -13.5 7.1875 C-13.25 4.125 -13.25 4.125 -12.5 1.1875 C-8.72960943 -0.69769529 -4.14845405 0.00274006 0 0 Z " fill="#EABE3F" transform="translate(28.5,213.8125)"/>
<path d="M0 0 C1.28487305 0.00616333 1.28487305 0.00616333 2.59570312 0.01245117 C3.52769531 0.01438477 4.4596875 0.01631836 5.41992188 0.01831055 C6.88365234 0.03667969 6.88365234 0.03667969 8.37695312 0.05541992 C9.35277344 0.05606445 10.32859375 0.05670898 11.33398438 0.05737305 C18.59626116 0.10257394 18.59626116 0.10257394 20.87695312 1.24291992 C21.62695312 3.61791992 21.62695312 3.61791992 21.87695312 6.24291992 C20.88695312 7.72791992 20.88695312 7.72791992 19.87695312 9.24291992 C17.66210938 9.61523438 17.66210938 9.61523438 14.93945312 9.60620117 C13.47378906 9.60523438 13.47378906 9.60523438 11.97851562 9.60424805 C10.955 9.58813477 9.93148437 9.57202148 8.87695312 9.55541992 C7.8534375 9.55864258 6.82992187 9.56186523 5.77539062 9.56518555 C-1.85615526 9.50981153 -1.85615526 9.50981153 -4.12304688 7.24291992 C-4.37304688 4.74291992 -4.37304688 4.74291992 -4.12304688 2.24291992 C-2.12304688 0.24291992 -2.12304688 0.24291992 0 0 Z " fill="#EABE3F" transform="translate(187.123046875,213.757080078125)"/>
<path d="M0 0 C2.31 0 4.62 0 7 0 C7 10.23 7 20.46 7 31 C4.69 31 2.38 31 0 31 C0 20.77 0 10.54 0 0 Z " fill="#EABE3F" transform="translate(345,194)"/>
<path d="M0 0 C3.0625 -0.25 3.0625 -0.25 6 0 C7 1 7 1 7.11352539 3.22485352 C7.10828857 4.18319092 7.10305176 5.14152832 7.09765625 6.12890625 C7.09443359 7.16337891 7.09121094 8.19785156 7.08789062 9.26367188 C7.07951172 10.35228516 7.07113281 11.44089844 7.0625 12.5625 C7.05798828 13.65498047 7.05347656 14.74746094 7.04882812 15.87304688 C7.03699826 18.58208495 7.02051543 21.29101599 7 24 C5.35 24.66 3.7 25.32 2 26 C-0.41761471 24.2847358 -1.83876997 22.9180551 -2.36230469 19.93701172 C-2.46640241 17.42681362 -2.44658894 14.9487646 -2.375 12.4375 C-2.37371094 11.57447266 -2.37242188 10.71144531 -2.37109375 9.82226562 C-2.28158482 3.42237723 -2.28158482 3.42237723 0 0 Z " fill="#EABE3F" transform="translate(109,128)"/>
<path d="M0 0 C1.2375 -0.01675781 2.475 -0.03351563 3.75 -0.05078125 C7 0.3125 7 0.3125 8.953125 1.66796875 C10 3.3125 10 3.3125 9.75 5.9375 C9 8.3125 9 8.3125 8 9.3125 C5.15664952 9.41236975 2.34302837 9.45127881 -0.5 9.4375 C-1.29792969 9.44136719 -2.09585938 9.44523437 -2.91796875 9.44921875 C-8.87339233 9.43910767 -8.87339233 9.43910767 -10 8.3125 C-10.25 5.375 -10.25 5.375 -10 2.3125 C-6.33236683 -0.13258878 -4.36568225 0.01364276 0 0 Z " fill="#EABE3F" transform="translate(112,318.6875)"/>
</svg>
